<svg width="501" height="106" viewBox="0 0 501 106" fill="none" xmlns="http://www.w3.org/2000/svg">
<path d="M39.0654 66.3731C39.0654 65.2385 38.8909 64.2202 38.5417 63.3183C38.2217 62.3873 37.6108 61.5436 36.7089 60.7872C35.807 60.0016 34.5414 59.2307 32.9122 58.4742C31.2829 57.7178 29.1737 56.9323 26.5844 56.1177C23.7041 55.1867 20.9693 54.1393 18.38 52.9756C15.8198 51.8118 13.5505 50.459 11.5721 48.9171C9.62288 47.346 8.08093 45.5277 6.94629 43.462C5.84074 41.3964 5.28796 38.9962 5.28796 36.2614C5.28796 33.6139 5.86983 31.2137 7.03357 29.0608C8.19731 26.8788 9.82654 25.0168 11.9213 23.4749C14.016 21.9038 16.4889 20.6964 19.3401 19.8527C22.2203 19.009 25.377 18.5872 28.81 18.5872C33.494 18.5872 37.5817 19.4309 41.0729 21.1183C44.5641 22.8057 47.2698 25.1186 49.1899 28.0571C51.1392 30.9955 52.1138 34.3558 52.1138 38.1379H39.1091C39.1091 36.276 38.7163 34.6467 37.9308 33.2502C37.1744 31.8247 36.0106 30.7046 34.4396 29.89C32.8976 29.0753 30.9484 28.668 28.5918 28.668C26.3225 28.668 24.4314 29.0172 22.9186 29.7154C21.4057 30.3845 20.2711 31.301 19.5146 32.4647C18.7582 33.5994 18.38 34.8795 18.38 36.3051C18.38 37.3815 18.6418 38.3561 19.1655 39.2289C19.7183 40.1017 20.5329 40.9164 21.6094 41.6728C22.6858 42.4292 24.0096 43.142 25.5806 43.8112C27.1517 44.4803 28.97 45.1349 31.0356 45.775C34.4978 46.8223 37.538 48.0006 40.1564 49.3098C42.8039 50.619 45.015 52.0882 46.7897 53.7175C48.5644 55.3467 49.9027 57.1941 50.8046 59.2598C51.7065 61.3254 52.1575 63.6674 52.1575 66.2858C52.1575 69.0497 51.6192 71.5226 50.5428 73.7047C49.4663 75.8867 47.9098 77.7341 45.8733 79.2469C43.8368 80.7598 41.4075 81.909 38.5854 82.6945C35.7633 83.48 32.6067 83.8728 29.1155 83.8728C25.9734 83.8728 22.8749 83.4655 19.8201 82.6509C16.7653 81.8072 13.9869 80.5416 11.4849 78.8542C9.01192 77.1668 7.03357 75.0139 5.5498 72.3954C4.06604 69.777 3.32416 66.6786 3.32416 63.1001H16.4598C16.4598 65.0785 16.7653 66.7513 17.3763 68.1187C17.9872 69.4861 18.8455 70.5917 19.951 71.4354C21.0857 72.2791 22.424 72.89 23.9659 73.2682C25.537 73.6465 27.2535 73.8356 29.1155 73.8356C31.3848 73.8356 33.2467 73.5155 34.7014 72.8755C36.1852 72.2354 37.2762 71.3481 37.9744 70.2134C38.7018 69.0788 39.0654 67.7987 39.0654 66.3731ZM72.5374 15.9688V83H59.9691V15.9688H72.5374ZM70.7482 57.7324H67.3006C67.3297 54.4448 67.7661 51.4191 68.6098 48.6552C69.4535 45.8622 70.6609 43.4475 72.2319 41.4109C73.803 39.3453 75.6795 37.7452 77.8615 36.6105C80.0726 35.4759 82.5165 34.9086 85.1931 34.9086C87.5205 34.9086 89.6298 35.2431 91.5209 35.9123C93.441 36.5523 95.0848 37.5997 96.4522 39.0544C97.8487 40.48 98.9252 42.3565 99.6816 44.684C100.438 47.0114 100.816 49.8335 100.816 53.1501V83H88.1606V53.0629C88.1606 50.9681 87.8551 49.3244 87.2441 48.1315C86.6623 46.9096 85.804 46.0514 84.6694 45.5568C83.5638 45.0331 82.1964 44.7712 80.5672 44.7712C78.7634 44.7712 77.2215 45.1058 75.9413 45.775C74.6903 46.4441 73.6866 47.3751 72.9302 48.5679C72.1737 49.7317 71.621 51.0991 71.2719 52.6701C70.9227 54.2411 70.7482 55.9286 70.7482 57.7324ZM132.106 83.8728C128.44 83.8728 125.153 83.2909 122.244 82.1272C119.334 80.9344 116.861 79.2906 114.825 77.1959C112.817 75.1011 111.275 72.6718 110.199 69.908C109.122 67.115 108.584 64.1475 108.584 61.0054V59.2598C108.584 55.6813 109.093 52.4083 110.112 49.4407C111.13 46.4732 112.585 43.8984 114.476 41.7164C116.396 39.5344 118.723 37.8616 121.458 36.6978C124.193 35.505 127.277 34.9086 130.71 34.9086C134.055 34.9086 137.023 35.4613 139.612 36.5669C142.202 37.6724 144.369 39.2435 146.115 41.28C147.889 43.3166 149.228 45.7604 150.13 48.6116C151.031 51.4336 151.482 54.5757 151.482 58.0378V63.2747H113.952V54.8958H139.132V53.9357C139.132 52.1901 138.812 50.6336 138.172 49.2662C137.561 47.8697 136.63 46.7641 135.379 45.9495C134.128 45.1349 132.528 44.7276 130.579 44.7276C128.92 44.7276 127.495 45.0913 126.302 45.8186C125.109 46.5459 124.135 47.5642 123.378 48.8734C122.651 50.1826 122.098 51.7246 121.72 53.4993C121.371 55.2449 121.196 57.165 121.196 59.2598V61.0054C121.196 62.8964 121.458 64.642 121.982 66.2422C122.534 67.8423 123.305 69.2243 124.295 70.388C125.313 71.5517 126.535 72.4536 127.96 73.0937C129.415 73.7337 131.059 74.0538 132.892 74.0538C135.161 74.0538 137.27 73.6174 139.22 72.7446C141.198 71.8427 142.9 70.4898 144.325 68.686L150.435 75.3193C149.446 76.7449 148.093 78.1123 146.377 79.4215C144.689 80.7307 142.653 81.8072 140.267 82.6509C137.881 83.4655 135.161 83.8728 132.106 83.8728ZM171.906 15.9688V83H159.294V15.9688H171.906ZM205.422 35.7814V44.684H177.928V35.7814H205.422ZM184.736 24.1295H197.305V68.7733C197.305 70.1407 197.479 71.1881 197.828 71.9154C198.206 72.6427 198.759 73.1519 199.487 73.4428C200.214 73.7047 201.13 73.8356 202.236 73.8356C203.021 73.8356 203.72 73.8065 204.331 73.7483C204.971 73.661 205.509 73.5737 205.945 73.4865L205.989 82.7382C204.912 83.0873 203.749 83.3637 202.498 83.5673C201.247 83.771 199.865 83.8728 198.352 83.8728C195.588 83.8728 193.173 83.4219 191.108 82.52C189.071 81.589 187.5 80.1052 186.395 78.0687C185.289 76.0321 184.736 73.3555 184.736 70.0389V24.1295ZM234.311 83.8728C230.646 83.8728 227.358 83.2909 224.449 82.1272C221.539 80.9344 219.066 79.2906 217.03 77.1959C215.022 75.1011 213.481 72.6718 212.404 69.908C211.328 67.115 210.789 64.1475 210.789 61.0054V59.2598C210.789 55.6813 211.299 52.4083 212.317 49.4407C213.335 46.4732 214.79 43.8984 216.681 41.7164C218.601 39.5344 220.928 37.8616 223.663 36.6978C226.398 35.505 229.482 34.9086 232.915 34.9086C236.261 34.9086 239.228 35.4613 241.818 36.5669C244.407 37.6724 246.574 39.2435 248.32 41.28C250.095 43.3166 251.433 45.7604 252.335 48.6116C253.237 51.4336 253.688 54.5757 253.688 58.0378V63.2747H216.157V54.8958H241.337V53.9357C241.337 52.1901 241.017 50.6336 240.377 49.2662C239.766 47.8697 238.835 46.7641 237.584 45.9495C236.333 45.1349 234.733 44.7276 232.784 44.7276C231.126 44.7276 229.7 45.0913 228.507 45.8186C227.314 46.5459 226.34 47.5642 225.583 48.8734C224.856 50.1826 224.303 51.7246 223.925 53.4993C223.576 55.2449 223.401 57.165 223.401 59.2598V61.0054C223.401 62.8964 223.663 64.642 224.187 66.2422C224.74 67.8423 225.511 69.2243 226.5 70.388C227.518 71.5517 228.74 72.4536 230.166 73.0937C231.62 73.7337 233.264 74.0538 235.097 74.0538C237.366 74.0538 239.475 73.6174 241.425 72.7446C243.403 71.8427 245.105 70.4898 246.531 68.686L252.64 75.3193C251.651 76.7449 250.298 78.1123 248.582 79.4215C246.894 80.7307 244.858 81.8072 242.472 82.6509C240.086 83.4655 237.366 83.8728 234.311 83.8728ZM273.413 46.0804V83H260.845V35.7814H272.671L273.413 46.0804ZM287.64 35.4759L287.421 47.1278C286.81 47.0405 286.069 46.9678 285.196 46.9096C284.352 46.8223 283.581 46.7787 282.883 46.7787C281.108 46.7787 279.566 47.0114 278.257 47.4769C276.977 47.9133 275.9 48.5679 275.028 49.4407C274.184 50.3135 273.544 51.3754 273.107 52.6265C272.7 53.8775 272.467 55.3031 272.409 56.9032L269.878 56.1177C269.878 53.0629 270.184 50.2554 270.795 47.6951C271.406 45.1058 272.293 42.8511 273.457 40.9309C274.649 39.0107 276.104 37.527 277.821 36.4796C279.537 35.4323 281.501 34.9086 283.712 34.9086C284.41 34.9086 285.123 34.9668 285.85 35.0831C286.578 35.1704 287.174 35.3013 287.64 35.4759Z" fill="white"/>
<g filter="url(#filter0_d_1_146)">
<path d="M306.9 61.3508H290.71V51.139H306.9C309.402 51.139 311.439 50.7317 313.01 49.9171C314.581 49.0733 315.73 47.9096 316.458 46.4258C317.185 44.9421 317.549 43.2692 317.549 41.4072C317.549 39.5162 317.185 37.756 316.458 36.1268C315.73 34.4975 314.581 33.1883 313.01 32.1992C311.439 31.21 309.402 30.7154 306.9 30.7154H295.248V84H282.156V20.46H306.9C311.875 20.46 316.138 21.3619 319.687 23.1656C323.265 24.9403 326 27.3987 327.891 30.5408C329.782 33.6829 330.728 37.276 330.728 41.3199C330.728 45.4221 329.782 48.9715 327.891 51.9681C326 54.9648 323.265 57.2777 319.687 58.9069C316.138 60.5362 311.875 61.3508 306.9 61.3508ZM352.242 36.7814V84H339.63V36.7814H352.242ZM338.845 24.4749C338.845 22.642 339.485 21.1291 340.765 19.9363C342.045 18.7434 343.762 18.147 345.915 18.147C348.038 18.147 349.74 18.7434 351.021 19.9363C352.33 21.1291 352.984 22.642 352.984 24.4749C352.984 26.3077 352.33 27.8206 351.021 29.0134C349.74 30.2063 348.038 30.8027 345.915 30.8027C343.762 30.8027 342.045 30.2063 340.765 29.0134C339.485 27.8206 338.845 26.3077 338.845 24.4749ZM400.203 74.181V84H364.331V74.181H400.203ZM399.505 44.0256L369.393 84H360.971V76.5375L390.951 36.7814H399.505V44.0256ZM395.053 36.7814V46.644H361.669V36.7814H395.053ZM445.676 74.181V84H409.804V74.181H445.676ZM444.978 44.0256L414.866 84H406.444V76.5375L436.424 36.7814H444.978V44.0256ZM440.526 36.7814V46.644H407.142V36.7814H440.526ZM479.061 73.3518V52.3173C479.061 50.8044 478.813 49.5097 478.319 48.4333C477.824 47.3277 477.053 46.4695 476.006 45.8585C474.988 45.2476 473.664 44.9421 472.035 44.9421C470.638 44.9421 469.431 45.1894 468.413 45.684C467.394 46.1495 466.609 46.8332 466.056 47.735C465.503 48.6078 465.227 49.6407 465.227 50.8335H452.658C452.658 48.826 453.124 46.9204 454.055 45.1166C454.986 43.3128 456.339 41.7273 458.113 40.3599C459.888 38.9634 461.997 37.8724 464.441 37.0869C466.914 36.3013 469.678 35.9086 472.733 35.9086C476.399 35.9086 479.657 36.5195 482.508 37.7415C485.359 38.9634 487.6 40.7963 489.229 43.2401C490.887 45.684 491.716 48.7388 491.716 52.4045V72.6099C491.716 75.1992 491.876 77.3231 492.196 78.9814C492.516 80.6106 492.982 82.0362 493.593 83.2581V84H480.894C480.283 82.7199 479.817 81.1198 479.497 79.1996C479.206 77.2503 479.061 75.3011 479.061 73.3518ZM480.719 55.2411L480.806 62.3545H473.78C472.122 62.3545 470.682 62.5436 469.46 62.9218C468.238 63.3 467.234 63.8383 466.449 64.5365C465.663 65.2056 465.081 65.9912 464.703 66.8931C464.354 67.795 464.179 68.7841 464.179 69.8606C464.179 70.9371 464.427 71.9117 464.921 72.7845C465.416 73.6282 466.129 74.2973 467.06 74.7919C467.991 75.2574 469.082 75.4902 470.333 75.4902C472.224 75.4902 473.868 75.112 475.264 74.3555C476.661 73.5991 477.737 72.6681 478.493 71.5626C479.279 70.457 479.686 69.4096 479.715 68.4205L483.032 73.7446C482.566 74.9374 481.926 76.1739 481.112 77.454C480.326 78.7341 479.323 79.9415 478.101 81.0761C476.879 82.1817 475.41 83.0981 473.693 83.8254C471.976 84.5237 469.94 84.8728 467.583 84.8728C464.587 84.8728 461.867 84.2764 459.423 83.0836C457.008 81.8616 455.088 80.1888 453.662 78.0649C452.266 75.912 451.567 73.4682 451.567 70.7334C451.567 68.2605 452.033 66.0639 452.964 64.1437C453.895 62.2236 455.262 60.6089 457.066 59.2997C458.899 57.9614 461.183 56.9577 463.918 56.2885C466.652 55.5903 469.824 55.2411 473.431 55.2411H480.719Z" fill="#FF3F4B"/>
</g>
<defs>
<filter id="filter0_d_1_146" x="273.156" y="8.14697" width="227.436" height="82.7258" filterUnits="userSpaceOnUse" color-interpolation-filters="sRGB">
<feFlood flood-opacity="0" result="BackgroundImageFix"/>
<feColorMatrix in="SourceAlpha" type="matrix" values="0 0 0 0 0 0 0 0 0 0 0 0 0 0 0 0 0 0 127 0" result="hardAlpha"/>
<feOffset dx="-1" dy="-2"/>
<feGaussianBlur stdDeviation="4"/>
<feComposite in2="hardAlpha" operator="out"/>
<feColorMatrix type="matrix" values="0 0 0 0 0 0 0 0 0 0 0 0 0 0 0 0 0 0 0.5 0"/>
<feBlend mode="normal" in2="BackgroundImageFix" result="effect1_dropShadow_1_146"/>
<feBlend mode="normal" in="SourceGraphic" in2="effect1_dropShadow_1_146" result="shape"/>
</filter>
</defs>
</svg>
